# xmcd CD database file
#
# Track frame offsets:
#	150
#	12927
#	26375
#	37750
#	49385
#	62990
#	77727
#	91192
#	104030
#	117217
#	129825
#	142907
#	156082
#	169310
#	184122
#	198935
#	212577
#	225815
#	238657
#	252977
#	266157
#	280882
#	293640
#	307935
#	319987
#
# Disc length: 4508 seconds
#
# Revision: 6
# Processed by: cddbd v1.5.1PL2 Copyright (c) Steve Scherf et al.
# Submitted via: CDex 1.51
#
DISCID=55119a19
DTITLE=Various Artist - The Blues, Vol. 3
DYEAR=1993
DGENRE=Blues
TTITLE0=Little Brother Montgomery - The First Time I Met You
TTITLE1=Robert Johnson - I Believe I'll Dust My Broom
TTITLE2=Robert Johnson - Cross Road Blues
TTITLE3=Peetie Wheatstraw - Peetie Wheatstraw Stomp
TTITLE4=Sonny Boy Williamson - Good Morning, Little School Girl
TTITLE5=Sonny Boy Williamson - Sloppy Drunk Blues
TTITLE6=Jimmy Rushing - Sent for You Yesterday
TTITLE7=Joe Turner - Roll 'Em Pete
TTITLE8=Joe Turner - Wee Baby Blues
TTITLE9=Bukka White - Fixin' to Die Blues
TTITLE10=Blind Boy Fuller - Step It Up and Go
TTITLE11=Tampa Red - Anna Lou Blues
TTITLE12=Big Maceo - Worried Life Blues
TTITLE13=Washboard Sam - I've Been Treated Wrong
TTITLE14=T-Bone Walker - T-Bone Blues
TTITLE15=T-Bone Walker - Call It Stormy Monday
TTITLE16=Tommy McClennan - Mozelle Blues
TTITLE17=Louis Jordan - It's a Low Down Dirty Shame
TTITLE18=Eddie "Cleanhead" Vinson - Cherry Red
TTITLE19=Arthur "Big Boy" Crudup - That's All Right
TTITLE20=Charles Brown - Drifting Blues
TTITLE21=Wynonie Harris - Mr. Blues Jumped the Rabbit
TTITLE22=John Lee Hooker - Boogie Chillen'
TTITLE23=Lightnin' Hopkins - Tim Moore's Farm
TTITLE24=Jimmy Witherspoon - No Rollin' Blues
EXTD=YEAR: 1993
EXTT0=
EXTT1=
EXTT2=
EXTT3=
EXTT4=
EXTT5=
EXTT6=
EXTT7=
EXTT8=
EXTT9=
EXTT10=
EXTT11=
EXTT12=
EXTT13=
EXTT14=
EXTT15=
EXTT16=
EXTT17=
EXTT18=
EXTT19=
EXTT20=
EXTT21=
EXTT22=
EXTT23=
EXTT24=
PLAYORDER=
